<svg width="38" height="38" viewBox="0 0 38 38" fill="none" xmlns="http://www.w3.org/2000/svg">
<rect width="38" height="38" rx="4" fill="#67696E"/>
<g clip-path="url(#clip0_2019_19398)">
<path d="M23.6875 13.375H31.1875" stroke="white" stroke-width="2" stroke-linecap="round" stroke-linejoin="round"/>
<path d="M7.75 18.5312H15.0156C16.0723 18.5313 17.0858 18.951 17.833 19.6982C18.5802 20.4455 19 21.4589 19 22.5156C19 23.5723 18.5802 24.5858 17.833 25.333C17.0858 26.0802 16.0723 26.5 15.0156 26.5H7.75V11.5H14.5469C15.4793 11.5 16.3735 11.8704 17.0328 12.5297C17.6921 13.189 18.0625 14.0832 18.0625 15.0156C18.0625 15.948 17.6921 16.8422 17.0328 17.5015C16.3735 18.1609 15.4793 18.5312 14.5469 18.5312" stroke="white" stroke-width="2" stroke-linecap="round" stroke-linejoin="round"/>
<path d="M31.1875 24.625C30.5197 25.5154 29.5568 26.1392 28.4711 26.3846C27.3855 26.6301 26.2479 26.4812 25.262 25.9646C24.2761 25.448 23.5062 24.5975 23.09 23.5652C22.6738 22.5328 22.6386 21.3861 22.9905 20.3302C23.3425 19.2743 24.0588 18.378 25.0111 17.8019C25.9634 17.2257 27.0897 17.0072 28.1884 17.1855C29.287 17.3638 30.2864 17.9273 31.0077 18.775C31.7289 19.6227 32.125 20.6995 32.125 21.8125H22.75" stroke="white" stroke-width="2" stroke-linecap="round" stroke-linejoin="round"/>
</g>
<defs>
<clipPath id="clip0_2019_19398">
<rect width="30" height="30" fill="white" transform="translate(4 4)"/>
</clipPath>
</defs>
</svg>
