<svg width="26" height="26" viewBox="0 0 26 26" fill="none" xmlns="http://www.w3.org/2000/svg">
<path d="M24.5 0.5H1.5C0.946875 0.5 0.5 0.946875 0.5 1.5V24.5C0.5 25.0531 0.946875 25.5 1.5 25.5H24.5C25.0531 25.5 25.5 25.0531 25.5 24.5V1.5C25.5 0.946875 25.0531 0.5 24.5 0.5ZM15.7031 7.96562H20.0281V9.01875H15.7031V7.96562ZM13 16.65C12.7977 17.034 12.5088 17.3657 12.1562 17.6187C11.7875 17.875 11.3781 18.0625 10.9438 18.1719C10.4893 18.2937 10.0205 18.3536 9.55 18.35H4.375V7.69063H9.40625C9.91562 7.69063 10.3781 7.7375 10.8 7.825C11.2188 7.9125 11.575 8.0625 11.875 8.26562C12.1719 8.46875 12.4062 8.74062 12.5719 9.07812C12.7344 9.4125 12.8188 9.83125 12.8188 10.3281C12.8188 10.8656 12.6969 11.3094 12.4531 11.6687C12.2062 12.0281 11.85 12.3187 11.3656 12.5469C12.025 12.7344 12.5094 13.0688 12.8281 13.5375C13.1531 14.0125 13.3125 14.5813 13.3125 15.25C13.3125 15.7937 13.2094 16.2594 13 16.65ZM21.7125 15H16.1375C16.1375 15.6062 16.3469 16.1875 16.6625 16.5C16.9813 16.8094 17.4375 16.9656 18.0344 16.9656C18.4656 16.9656 18.8312 16.8563 19.1437 16.6406C19.4531 16.425 19.6406 16.1969 19.7094 15.9594H21.5781C21.2781 16.8875 20.8219 17.55 20.2031 17.95C19.5906 18.35 18.8406 18.55 17.9688 18.55C17.3594 18.55 16.8125 18.45 16.3219 18.2594C15.85 18.075 15.425 17.7937 15.075 17.4312C14.7299 17.059 14.4632 16.6211 14.2906 16.1437C14.1 15.6156 14.0063 15.0594 14.0125 14.5C14.0125 13.9219 14.1094 13.3844 14.2969 12.8844C14.6562 11.9125 15.4031 11.1344 16.3563 10.7312C16.8656 10.5187 17.4125 10.4125 17.9656 10.4187C18.6219 10.4187 19.1906 10.5438 19.6844 10.8C20.1597 11.0447 20.5724 11.3954 20.8906 11.825C21.2063 12.2531 21.4281 12.7406 21.5688 13.2906C21.7031 13.8312 21.75 14.4 21.7125 15ZM17.9 12.0125C17.5625 12.0125 17.2781 12.0719 17.0594 12.1875C16.8406 12.3031 16.6594 12.4469 16.5219 12.6125C16.3909 12.7724 16.2941 12.9575 16.2375 13.1562C16.1875 13.3219 16.1531 13.4906 16.1406 13.6625H19.5938C19.5437 13.1219 19.3563 12.7219 19.1063 12.4406C18.8438 12.1625 18.4219 12.0125 17.9 12.0125ZM10.1344 11.6969C10.4062 11.5 10.5375 11.175 10.5375 10.7281C10.5469 10.5156 10.5031 10.3063 10.4094 10.1156C10.325 9.9625 10.2 9.83437 10.0469 9.74375C9.8881 9.64747 9.71176 9.58373 9.52812 9.55625C9.32812 9.51875 9.125 9.5 8.925 9.50313H6.72812V11.9937H9.10625C9.51562 11.9969 9.8625 11.8969 10.1344 11.6969ZM10.5031 13.9469C10.1969 13.7125 9.7875 13.5969 9.27812 13.5969H6.72188V16.5344H9.22812C9.4625 16.5344 9.67812 16.5125 9.8875 16.4688C10.0969 16.425 10.2844 16.35 10.4438 16.2437C10.6031 16.1406 10.7313 16 10.8281 15.8188C10.9219 15.6375 10.9688 15.4062 10.9688 15.1281C10.9688 14.575 10.8125 14.1844 10.5031 13.9469Z" fill="#67696E"/>
</svg>
