<svg width="26" height="26" viewBox="0 0 26 26" fill="none" xmlns="http://www.w3.org/2000/svg">
<path d="M12.5813 10.5C11.3063 8.23438 9.93437 6.33125 9.73125 6.05313C7.58125 7.06875 5.97188 9.05 5.475 11.4344C5.81875 11.4406 8.9875 11.4563 12.5813 10.5ZM14.6594 11.1812C14.8375 11.5469 15.0094 11.9187 15.1688 12.2937C15.225 12.425 15.2813 12.5563 15.3344 12.6906C17.8906 12.3688 20.4344 12.8844 20.6875 12.9375C20.6719 11.1219 20.0219 9.45625 18.9531 8.14688C18.7875 8.36875 17.5 10.0219 14.6594 11.1812ZM24.5 0.5H1.5C0.946875 0.5 0.5 0.946875 0.5 1.5V24.5C0.5 25.0531 0.946875 25.5 1.5 25.5H24.5C25.0531 25.5 25.5 25.0531 25.5 24.5V1.5C25.5 0.946875 25.0531 0.5 24.5 0.5ZM13 22C8.0375 22 4 17.9625 4 13C4 8.0375 8.0375 4 13 4C17.9625 4 22 8.0375 22 13C22 17.9625 17.9625 22 13 22ZM15.8031 13.9031C16.8094 16.6656 17.2188 18.9156 17.2969 19.3844C19.0219 18.2187 20.25 16.3719 20.5906 14.2313C20.3281 14.15 18.2125 13.5188 15.8031 13.9031ZM13.5375 13.0781C13.6375 13.0469 13.7375 13.0156 13.8406 12.9875C13.6469 12.55 13.4375 12.1125 13.2188 11.6844C9.38125 12.8344 5.65313 12.7844 5.31875 12.7781C5.31563 12.8562 5.31563 12.9344 5.31563 13.0125C5.31563 14.9875 6.0625 16.7906 7.29062 18.1531C7.4625 17.8531 9.57188 14.3594 13.5375 13.0781ZM18.0969 7.25937C17.1716 6.43608 16.0604 5.84936 14.8587 5.54947C13.657 5.24959 12.4005 5.24548 11.1969 5.5375C11.4094 5.82188 12.8062 7.72188 14.0656 10.0375C16.8 9.0125 17.9562 7.45625 18.0969 7.25937ZM14.3125 14.275C9.97813 15.7844 8.41875 18.7938 8.28125 19.075C9.58438 20.0906 11.2219 20.6969 13 20.6969C14.0656 20.6969 15.0812 20.4812 16.0031 20.0875C15.8875 19.4125 15.4437 17.0625 14.3625 14.2563L14.3125 14.275Z" fill="#67696E"/>
</svg>
