<svg width="38" height="38" viewBox="0 0 38 38" fill="none" xmlns="http://www.w3.org/2000/svg">
<rect width="38" height="38" rx="3" fill="#67696E"/>
<g clip-path="url(#clip0_2019_19399)">
<path d="M19 30.25C25.2132 30.25 30.25 25.2132 30.25 19C30.25 12.7868 25.2132 7.75 19 7.75C12.7868 7.75 7.75 12.7868 7.75 19C7.75 25.2132 12.7868 30.25 19 30.25Z" stroke="white" stroke-width="2" stroke-linecap="round" stroke-linejoin="round"/>
<path d="M12.3203 28.0551C13.9895 25.2904 16.3447 23.004 19.1576 21.4175C21.9704 19.831 25.1456 18.9982 28.375 19C29.0066 19 29.6324 19.0316 30.25 19.0926" stroke="white" stroke-width="2" stroke-linecap="round" stroke-linejoin="round"/>
<path d="M26.0305 10.2217C24.2741 12.3805 22.0583 14.1204 19.5445 15.3146C17.0308 16.5089 14.2823 17.1274 11.4992 17.1252C10.3133 17.1255 9.1299 17.0141 7.96484 16.7924" stroke="white" stroke-width="2" stroke-linecap="round" stroke-linejoin="round"/>
<path d="M14.0703 8.88574C16.8899 10.5397 19.2278 12.9025 20.8518 15.7394C22.4759 18.5763 23.3295 21.7887 23.3281 25.0576C23.3292 26.5894 23.143 28.1155 22.7738 29.6021" stroke="white" stroke-width="2" stroke-linecap="round" stroke-linejoin="round"/>
</g>
<defs>
<clipPath id="clip0_2019_19399">
<rect width="30" height="30" fill="white" transform="translate(4 4)"/>
</clipPath>
</defs>
</svg>
