<?xml version="1.0" standalone="no"?>
<!DOCTYPE svg PUBLIC "-//W3C//DTD SVG 20010904//EN"
 "http://www.w3.org/TR/2001/REC-SVG-20010904/DTD/svg10.dtd">
<svg version="1.0" xmlns="http://www.w3.org/2000/svg"
 width="1024.000000pt" height="1024.000000pt" viewBox="0 0 1024.000000 1024.000000"
 preserveAspectRatio="xMidYMid meet">

<g transform="translate(0.000000,1024.000000) scale(0.100000,-0.100000)"
fill="#ffffff" stroke="none">
<path d="M0 5120 l0 -5120 5120 0 5120 0 0 5120 0 5120 -5120 0 -5120 0 0
-5120z m5575 3020 c640 -97 1237 -399 1690 -854 l130 -131 -354 -3 -353 -2
-67 49 c-363 266 -866 447 -1332 478 l-102 6 6 -24 c3 -13 42 -130 86 -259 79
-233 113 -337 403 -1245 677 -2125 662 -2073 662 -2340 0 -166 -15 -260 -66
-405 -150 -428 -490 -724 -941 -822 -133 -29 -401 -31 -547 -4 -199 36 -412
124 -592 245 -105 71 -240 186 -298 253 l-32 38 81 87 c44 48 127 149 183 224
57 76 106 138 110 139 4 0 33 -37 66 -83 191 -264 451 -407 740 -407 200 0
376 74 514 217 147 152 218 338 218 570 -1 172 13 122 -339 1228 -320 1003
-363 1135 -370 1135 -3 -1 -26 -42 -50 -93 -24 -51 -117 -243 -206 -427 -315
-652 -355 -736 -355 -743 0 -4 161 -7 358 -6 l357 1 14 -28 c8 -16 53 -139
101 -274 l87 -245 -598 -3 -598 -2 -57 -118 c-82 -169 -290 -603 -404 -842
-53 -113 -123 -256 -154 -318 -46 -92 -55 -116 -45 -128 27 -32 202 -167 303
-233 137 -89 376 -211 513 -262 497 -185 1078 -181 1598 11 386 143 740 385
1051 721 142 153 311 384 380 522 l24 47 -249 0 -249 0 -44 138 -44 137 307 3
c169 1 449 1 622 0 l315 -3 -28 -80 c-118 -341 -304 -668 -539 -948 -294 -351
-607 -596 -1016 -797 -445 -219 -838 -311 -1340 -312 -501 -1 -885 85 -1320
296 -430 209 -766 474 -1064 841 -381 471 -620 1049 -687 1665 -22 204 -15
563 15 758 54 352 174 716 334 1011 180 333 442 666 702 890 501 433 1064 678
1725 750 149 17 585 6 745 -19z m405 -810 c133 -53 320 -154 320 -172 0 -4
-96 -8 -214 -8 l-214 0 -37 113 c-20 61 -38 117 -40 124 -4 11 73 -12 185 -57z
m1653 -477 c24 -32 65 -92 92 -133 26 -41 52 -81 58 -87 7 -10 -168 -13 -871
-13 l-881 0 -46 141 c-25 77 -45 143 -45 145 0 2 371 4 824 4 l825 0 44 -57z
m327 -580 c44 -105 80 -201 80 -213 0 -7 -321 -9 -916 -8 l-916 3 -48 148 -48
147 908 0 908 0 32 -77z m169 -546 c24 -120 41 -230 35 -238 -3 -5 -380 -9
-892 -9 l-887 0 -44 143 c-25 78 -46 147 -48 152 -2 7 305 9 911 7 l915 -2 10
-53z m71 -662 l0 -156 -822 3 -822 3 -48 150 c-26 83 -48 151 -48 153 0 1 392
2 870 2 l870 0 0 -155z m-30 -424 c0 -12 -38 -239 -45 -268 l-5 -23 -699 0
-698 0 -21 73 c-12 39 -33 107 -46 150 l-24 77 769 0 c449 0 769 -4 769 -9z"/>
<path d="M4940 7673 c-612 -61 -1143 -303 -1564 -713 -436 -424 -702 -964
-782 -1585 -25 -195 -16 -548 19 -746 54 -308 132 -549 259 -804 82 -163 209
-365 230 -365 4 0 51 89 104 198 179 366 507 1039 724 1487 43 88 128 264 190
390 62 127 147 302 190 390 43 88 162 331 265 540 302 612 585 1196 585 1206
0 8 -143 10 -220 2z"/>
</g>
</svg>
